{
  "accessors": [
    {
      "bufferView": 2,
      "componentType": 5126,
      "count": 652,
      "max": [
        0.317399263381958,
        0.24037902057170868,
        0.7558051347732544
      ],
      "min": [
        -0.317399263381958,
        -0.24037902057170868,
        -0.2305000126361847
      ],
      "type": "VEC3"
    },
    {
      "bufferView": 2,
      "byteOffset": 7824,
      "componentType": 5126,
      "count": 652,
      "max": [
        1.0,
        1.0,
        1.0
      ],
      "min": [
        -1.0,
        -1.0,
        -1.0
      ],
      "type": "VEC3"
    },
    {
      "bufferView": 3,
      "componentType": 5126,
      "count": 652,
      "max": [
        1.0,
        1.0,
        1.0,
        1.0
      ],
      "min": [
        -1.0,
        -1.0,
        -1.0,
        1.0
      ],
      "type": "VEC4"
    },
    {
      "bufferView": 1,
      "componentType": 5126,
      "count": 652,
      "max": [
        0.9693865776062012,
        0.9626595973968506
      ],
      "min": [
        0.0,
        0.0
      ],
      "type": "VEC2"
    },
    {
      "bufferView": 1,
      "byteOffset": 5216,
      "componentType": 5126,
      "count": 652,
      "max": [
        0.9693865776062012,
        0.9626595973968506
      ],
      "min": [
        0.0,
        0.0
      ],
      "type": "VEC2"
    },
    {
      "bufferView": 1,
      "byteOffset": 10432,
      "componentType": 5126,
      "count": 652,
      "max": [
        0.9693865776062012,
        0.9626595973968506
      ],
      "min": [
        0.0,
        0.0
      ],
      "type": "VEC2"
    },
    {
      "bufferView": 0,
      "componentType": 5125,
      "count": 1536,
      "type": "SCALAR"
    },
    {
      "bufferView": 2,
      "byteOffset": 15648,
      "componentType": 5126,
      "count": 360,
      "max": [
        0.3199599087238312,
        0.21147969365119934,
        0.0466901995241642
      ],
      "min": [
        -0.28099894523620605,
        -0.21147969365119934,
        -0.17590577900409698
      ],
      "type": "VEC3"
    },
    {
      "bufferView": 2,
      "byteOffset": 19968,
      "componentType": 5126,
      "count": 360,
      "max": [
        1.0,
        1.0,
        1.0
      ],
      "min": [
        -1.0,
        -1.0,
        -1.0
      ],
      "type": "VEC3"
    },
    {
      "bufferView": 3,
      "byteOffset": 10432,
      "componentType": 5126,
      "count": 360,
      "max": [
        1.0,
        1.0,
        1.0,
        1.0
      ],
      "min": [
        -1.0,
        -0.7071053385734558,
        -1.0,
        1.0
      ],
      "type": "VEC4"
    },
    {
      "bufferView": 1,
      "byteOffset": 15648,
      "componentType": 5126,
      "count": 360,
      "max": [
        0.9968239068984985,
        0.9999999403953552
      ],
      "min": [
        0.0,
        0.0
      ],
      "type": "VEC2"
    },
    {
      "bufferView": 1,
      "byteOffset": 18528,
      "componentType": 5126,
      "count": 360,
      "max": [
        0.9968239068984985,
        0.9999999403953552
      ],
      "min": [
        0.0,
        0.0
      ],
      "type": "VEC2"
    },
    {
      "bufferView": 1,
      "byteOffset": 21408,
      "componentType": 5126,
      "count": 360,
      "max": [
        0.9968239068984985,
        0.9999999403953552
      ],
      "min": [
        0.0,
        0.0
      ],
      "type": "VEC2"
    },
    {
      "bufferView": 0,
      "byteOffset": 6144,
      "componentType": 5125,
      "count": 690,
      "type": "SCALAR"
    },
    {
      "bufferView": 2,
      "byteOffset": 24288,
      "componentType": 5126,
      "count": 325,
      "max": [
        0.3556429445743561,
        0.21147969365119934,
        0.7173417210578918
      ],
      "min": [
        -0.24531592428684235,
        -0.21147969365119934,
        0.494745671749115
      ],
      "type": "VEC3"
    },
    {
      "bufferView": 2,
      "byteOffset": 28188,
      "componentType": 5126,
      "count": 325,
      "max": [
        1.0,
        1.0,
        1.0
      ],
      "min": [
        -1.0,
        -1.0,
        -1.0
      ],
      "type": "VEC3"
    },
    {
      "bufferView": 3,
      "byteOffset": 16192,
      "componentType": 5126,
      "count": 325,
      "max": [
        1.0,
        1.0,
        1.0,
        1.0
      ],
      "min": [
        -1.0,
        -2.4530667360522784e-05,
        -1.0,
        1.0
      ],
      "type": "VEC4"
    },
    {
      "bufferView": 1,
      "byteOffset": 24288,
      "componentType": 5126,
      "count": 325,
      "max": [
        0.9712643027305603,
        0.9457437992095947
      ],
      "min": [
        0.057468414306640625,
        0.0
      ],
      "type": "VEC2"
    },
    {
      "bufferView": 1,
      "byteOffset": 26888,
      "componentType": 5126,
      "count": 325,
      "max": [
        0.9712643027305603,
        0.9457437992095947
      ],
      "min": [
        0.057468414306640625,
        0.0
      ],
      "type": "VEC2"
    },
    {
      "bufferView": 1,
      "byteOffset": 29488,
      "componentType": 5126,
      "count": 325,
      "max": [
        0.9712643027305603,
        0.9457437992095947
      ],
      "min": [
        0.057468414306640625,
        0.0
      ],
      "type": "VEC2"
    },
    {
      "bufferView": 0,
      "byteOffset": 8904,
      "componentType": 5125,
      "count": 690,
      "type": "SCALAR"
    },
    {
      "bufferView": 2,
      "byteOffset": 32088,
      "componentType": 5126,
      "count": 319,
      "max": [
        0.3199599087238312,
        0.21147969365119934,
        0.49396926164627075
      ],
      "min": [
        -0.28099894523620605,
        -0.21147969365119934,
        0.2713732123374939
      ],
      "type": "VEC3"
    },
    {
      "bufferView": 2,
      "byteOffset": 35916,
      "componentType": 5126,
      "count": 319,
      "max": [
        1.0,
        1.0,
        1.0
      ],
      "min": [
        -1.0,
        -1.0,
        -1.0
      ],
      "type": "VEC3"
    },
    {
      "bufferView": 3,
      "byteOffset": 21392,
      "componentType": 5126,
      "count": 319,
      "max": [
        1.0,
        1.0,
        1.0,
        1.0
      ],
      "min": [
        -1.0,
        -2.802687231451273e-05,
        -1.0,
        1.0
      ],
      "type": "VEC4"
    },
    {
      "bufferView": 1,
      "byteOffset": 32088,
      "componentType": 5126,
      "count": 319,
      "max": [
        0.960320234298706,
        0.9457437992095947
      ],
      "min": [
        0.14829623699188232,
        0.1091969758272171
      ],
      "type": "VEC2"
    },
    {
      "bufferView": 1,
      "byteOffset": 34640,
      "componentType": 5126,
      "count": 319,
      "max": [
        0.960320234298706,
        0.9457437992095947
      ],
      "min": [
        0.14829623699188232,
        0.1091969758272171
      ],
      "type": "VEC2"
    },
    {
      "bufferView": 1,
      "byteOffset": 37192,
      "componentType": 5126,
      "count": 319,
      "max": [
        0.960320234298706,
        0.9457437992095947
      ],
      "min": [
        0.14829623699188232,
        0.1091969758272171
      ],
      "type": "VEC2"
    },
    {
      "bufferView": 0,
      "byteOffset": 11664,
      "componentType": 5125,
      "count": 690,
      "type": "SCALAR"
    },
    {
      "bufferView": 2,
      "byteOffset": 39744,
      "componentType": 5126,
      "count": 343,
      "max": [
        0.45466354489326477,
        0.21147969365119934,
        0.27020156383514404
      ],
      "min": [
        -0.14629530906677246,
        -0.21147969365119934,
        0.04760555922985077
      ],
      "type": "VEC3"
    },
    {
      "bufferView": 2,
      "byteOffset": 43860,
      "componentType": 5126,
      "count": 343,
      "max": [
        1.0,
        1.0,
        1.0
      ],
      "min": [
        -1.0,
        -1.0,
        -1.0
      ],
      "type": "VEC3"
    },
    {
      "bufferView": 3,
      "byteOffset": 26496,
      "componentType": 5126,
      "count": 343,
      "max": [
        1.0,
        1.0,
        1.0,
        1.0
      ],
      "min": [
        -1.0,
        -2.802693416015245e-05,
        -1.0,
        1.0
      ],
      "type": "VEC4"
    },
    {
      "bufferView": 1,
      "byteOffset": 39744,
      "componentType": 5126,
      "count": 343,
      "max": [
        0.9844695329666138,
        0.9999999403953552
      ],
      "min": [
        0.05746841803193092,
        0.0
      ],
      "type": "VEC2"
    },
    {
      "bufferView": 1,
      "byteOffset": 42488,
      "componentType": 5126,
      "count": 343,
      "max": [
        0.9844695329666138,
        0.9999999403953552
      ],
      "min": [
        0.05746841803193092,
        0.0
      ],
      "type": "VEC2"
    },
    {
      "bufferView": 1,
      "byteOffset": 45232,
      "componentType": 5126,
      "count": 343,
      "max": [
        0.9844695329666138,
        0.9999999403953552
      ],
      "min": [
        0.05746841803193092,
        0.0
      ],
      "type": "VEC2"
    },
    {
      "bufferView": 0,
      "byteOffset": 14424,
      "componentType": 5125,
      "count": 690,
      "type": "SCALAR"
    }
  ],
  "asset": {
    "extras": {
      "author": "Shorty_Digitan (https://sketchfab.com/Shorty_Digitan)",
      "license": "CC-BY-4.0 (http://creativecommons.org/licenses/by/4.0/)",
      "source": "https://sketchfab.com/3d-models/file-cabinet-e7fec8b453ef4105ace383dde017485c",
      "title": "File Cabinet"
    },
    "generator": "Sketchfab-13.45.0",
    "version": "2.0"
  },
  "bufferViews": [
    {
      "buffer": 0,
      "byteLength": 17184,
      "name": "floatBufferViews",
      "target": 34963
    },
    {
      "buffer": 0,
      "byteLength": 47976,
      "byteOffset": 17184,
      "byteStride": 8,
      "name": "floatBufferViews",
      "target": 34962
    },
    {
      "buffer": 0,
      "byteLength": 47976,
      "byteOffset": 65160,
      "byteStride": 12,
      "name": "floatBufferViews",
      "target": 34962
    },
    {
      "buffer": 0,
      "byteLength": 31984,
      "byteOffset": 113136,
      "byteStride": 16,
      "name": "floatBufferViews",
      "target": 34962
    }
  ],
  "buffers": [
    {
      "byteLength": 145120,
      "uri": "scene.bin"
    }
  ],
  "images": [
    {
      "uri": "textures/File_container_metal_baseColor.png"
    },
    {
      "uri": "textures/File_container_metal_metallicRoughness.png"
    },
    {
      "uri": "textures/File_container_metal_normal.png"
    }
  ],
  "materials": [
    {
      "doubleSided": true,
      "name": "File_container_metal",
      "normalTexture": {
        "index": 2
      },
      "pbrMetallicRoughness": {
        "baseColorTexture": {
          "index": 0
        },
        "metallicRoughnessTexture": {
          "index": 1
        }
      }
    }
  ],
  "meshes": [
    {
      "name": "File cabinet_File container metal_0",
      "primitives": [
        {
          "attributes": {
            "NORMAL": 1,
            "POSITION": 0,
            "TANGENT": 2,
            "TEXCOORD_0": 3,
            "TEXCOORD_1": 4,
            "TEXCOORD_2": 5
          },
          "indices": 6,
          "material": 0,
          "mode": 4
        }
      ]
    },
    {
      "name": "File cabinet 04_File container metal_0",
      "primitives": [
        {
          "attributes": {
            "NORMAL": 8,
            "POSITION": 7,
            "TANGENT": 9,
            "TEXCOORD_0": 10,
            "TEXCOORD_1": 11,
            "TEXCOORD_2": 12
          },
          "indices": 13,
          "material": 0,
          "mode": 4
        }
      ]
    },
    {
      "name": "File cabinet 01_File container metal_0",
      "primitives": [
        {
          "attributes": {
            "NORMAL": 15,
            "POSITION": 14,
            "TANGENT": 16,
            "TEXCOORD_0": 17,
            "TEXCOORD_1": 18,
            "TEXCOORD_2": 19
          },
          "indices": 20,
          "material": 0,
          "mode": 4
        }
      ]
    },
    {
      "name": "File cabinet 02_File container metal_0",
      "primitives": [
        {
          "attributes": {
            "NORMAL": 22,
            "POSITION": 21,
            "TANGENT": 23,
            "TEXCOORD_0": 24,
            "TEXCOORD_1": 25,
            "TEXCOORD_2": 26
          },
          "indices": 27,
          "material": 0,
          "mode": 4
        }
      ]
    },
    {
      "name": "File cabinet 03_File container metal_0",
      "primitives": [
        {
          "attributes": {
            "NORMAL": 29,
            "POSITION": 28,
            "TANGENT": 30,
            "TEXCOORD_0": 31,
            "TEXCOORD_1": 32,
            "TEXCOORD_2": 33
          },
          "indices": 34,
          "material": 0,
          "mode": 4
        }
      ]
    }
  ],
  "nodes": [
    {
      "children": [
        1
      ],
      "matrix": [
        1.0,
        0.0,
        0.0,
        0.0,
        0.0,
        2.220446049250313e-16,
        -1.0,
        0.0,
        0.0,
        1.0,
        2.220446049250313e-16,
        0.0,
        0.0,
        0.0,
        0.0,
        1.0
      ],
      "name": "Sketchfab_model"
    },
    {
      "children": [
        2
      ],
      "matrix": [
        0.009999999776482582,
        0.0,
        0.0,
        0.0,
        0.0,
        0.0,
        0.009999999776482582,
        0.0,
        0.0,
        -0.009999999776482582,
        0.0,
        0.0,
        0.0,
        0.0,
        0.0,
        1.0
      ],
      "name": "453606910cef4ef28e914e3f2c49cad3.fbx"
    },
    {
      "children": [
        3,
        5,
        7,
        9,
        11
      ],
      "name": "RootNode"
    },
    {
      "children": [
        4
      ],
      "matrix": [
        100.0,
        0.0,
        0.0,
        0.0,
        -0.0,
        -1.629206793918314e-05,
        -99.99999999999868,
        0.0,
        0.0,
        99.99999999999868,
        -1.629206793918314e-05,
        0.0,
        -147.1406707763672,
        0.0,
        -396.53424072265625,
        1.0
      ],
      "name": "File cabinet"
    },
    {
      "mesh": 0,
      "name": "File cabinet_File container metal_0"
    },
    {
      "children": [
        6
      ],
      "matrix": [
        100.0,
        0.0,
        0.0,
        0.0,
        -0.0,
        -1.629206793918314e-05,
        -99.99999999999868,
        0.0,
        0.0,
        99.99999999999868,
        -1.629206793918314e-05,
        0.0,
        -147.1406707763672,
        0.0,
        -396.53424072265625,
        1.0
      ],
      "name": "File cabinet 04"
    },
    {
      "mesh": 1,
      "name": "File cabinet 04_File container metal_0"
    },
    {
      "children": [
        8
      ],
      "matrix": [
        100.0,
        0.0,
        0.0,
        0.0,
        -0.0,
        -1.629206793918314e-05,
        -99.99999999999868,
        0.0,
        0.0,
        99.99999999999868,
        -1.629206793918314e-05,
        0.0,
        -147.1406707763672,
        0.0,
        -396.53424072265625,
        1.0
      ],
      "name": "File cabinet 01"
    },
    {
      "mesh": 2,
      "name": "File cabinet 01_File container metal_0"
    },
    {
      "children": [
        10
      ],
      "matrix": [
        100.0,
        0.0,
        0.0,
        0.0,
        -0.0,
        -1.629206793918314e-05,
        -99.99999999999868,
        0.0,
        0.0,
        99.99999999999868,
        -1.629206793918314e-05,
        0.0,
        -147.1406707763672,
        0.0,
        -396.53424072265625,
        1.0
      ],
      "name": "File cabinet 02"
    },
    {
      "mesh": 3,
      "name": "File cabinet 02_File container metal_0"
    },
    {
      "children": [
        12
      ],
      "matrix": [
        100.0,
        0.0,
        0.0,
        0.0,
        -0.0,
        -1.629206793918314e-05,
        -99.99999999999868,
        0.0,
        0.0,
        99.99999999999868,
        -1.629206793918314e-05,
        0.0,
        -147.1406707763672,
        0.0,
        -396.53424072265625,
        1.0
      ],
      "name": "File cabinet 03"
    },
    {
      "mesh": 4,
      "name": "File cabinet 03_File container metal_0"
    }
  ],
  "samplers": [
    {
      "magFilter": 9729,
      "minFilter": 9987,
      "wrapS": 10497,
      "wrapT": 10497
    }
  ],
  "scene": 0,
  "scenes": [
    {
      "name": "Sketchfab_Scene",
      "nodes": [
        0
      ]
    }
  ],
  "textures": [
    {
      "sampler": 0,
      "source": 0
    },
    {
      "sampler": 0,
      "source": 1
    },
    {
      "sampler": 0,
      "source": 2
    }
  ]
}
